<?xml version="1.0" encoding="UTF-8"?>
<svg id="Layer_1" data-name="Layer 1" xmlns="http://www.w3.org/2000/svg" version="1.1" viewBox="0 0 363.53 72.43">
  <defs>
    <style>
      .cls-1 {
        fill: #00aeef;
        stroke: #2e3192;
        stroke-miterlimit: 10;
      }
    </style>
  </defs>
  <path class="cls-1" d="M.5,13.2c0-3.07.99-5.68,2.96-7.83v.09c1.91-2.2,4.12-3.31,6.61-3.31h.26c1.33,0,2.58.3,3.74.91,1.16.61,2.16,1.44,3,2.48.84,1.04,1.51,2.23,2,3.57.49,1.33.74,2.76.74,4.26v46.54c0,1.62-.25,3.12-.74,4.48-.49,1.36-1.17,2.55-2.04,3.57-.87,1.02-1.89,1.8-3.04,2.35-1.16.55-2.41.83-3.74.83s-2.57-.29-3.7-.87-2.19-1.36-3.18-2.35c-1.91-2.2-2.87-4.84-2.87-7.92V13.2ZM1.46,60.01c0,2.73.84,5.1,2.52,7.13,1.8,1.91,3.88,2.87,6.26,2.87s4.49-.94,6.18-2.83c1.68-1.88,2.52-4.31,2.52-7.26V13.38c0-1.39-.22-2.68-.65-3.87-.44-1.19-1.04-2.25-1.83-3.18-.78-.93-1.7-1.67-2.74-2.22-1.04-.55-2.18-.83-3.39-.83h-.26c-2.38,0-4.38.96-6,2.87-1.74,2.03-2.61,4.38-2.61,7.05v46.81ZM2.41,13.2c0-2.49.75-4.58,2.26-6.26,1.57-1.86,3.45-2.73,5.66-2.61,1.1,0,2.12.25,3.04.74.93.49,1.74,1.16,2.44,2,.7.84,1.23,1.8,1.61,2.87.38,1.07.57,2.22.57,3.44v46.54c0,2.61-.74,4.77-2.22,6.48-1.48,1.71-3.32,2.57-5.52,2.57s-4.09-.87-5.65-2.61c-1.45-1.68-2.17-3.8-2.17-6.35V13.2Z"/>
  <path class="cls-1" d="M27.38,3.81v.09c1.97-2.26,4.35-3.39,7.13-3.39s5.19,1.16,7.22,3.48c1.97,2.2,2.96,4.96,2.96,8.26,0,2.26-.52,4.34-1.57,6.22-1.04,1.89-2.41,3.32-4.09,4.31,1.57.99,2.84,2.36,3.83,4.13.99,1.77,1.48,3.73,1.48,5.87v27.14c0,1.51-.26,2.94-.78,4.31-.52,1.36-1.23,2.55-2.13,3.57-.9,1.02-1.94,1.83-3.13,2.44-1.19.61-2.45.91-3.78.91s-2.6-.29-3.78-.87c-1.19-.58-2.22-1.38-3.09-2.39-.87-1.01-1.57-2.2-2.09-3.57-.52-1.36-.78-2.8-.78-4.31v-27.32c0-3.19.99-5.86,2.96-8v.09c.58-.75,1.31-1.42,2.18-2-.46-.29-.9-.61-1.31-.96-.41-.35-.81-.75-1.22-1.22-2.03-2.38-3.05-5.19-3.05-8.44s1.01-6.15,3.05-8.35ZM27.99,19.81c1.27,1.45,2.81,2.41,4.61,2.87-1.62.47-3.04,1.39-4.26,2.78-1.74,1.91-2.61,4.32-2.61,7.22v27.32c0,1.39.23,2.7.7,3.92.46,1.22,1.1,2.28,1.91,3.18.81.9,1.74,1.61,2.78,2.13,1.04.52,2.18.78,3.39.78s2.36-.26,3.44-.78c1.07-.52,2.03-1.25,2.87-2.18.84-.93,1.49-2,1.96-3.22.46-1.22.7-2.52.7-3.92v-27.14c0-2.49-.68-4.67-2.04-6.52-1.36-1.86-3.06-3.02-5.09-3.48,2.15-.46,3.93-1.68,5.35-3.65,1.42-1.97,2.13-4.26,2.13-6.87,0-2.9-.9-5.42-2.7-7.57-1.91-2.09-4.12-3.13-6.61-3.13s-4.73,1.02-6.52,3.04c-1.8,1.97-2.7,4.5-2.7,7.57s.9,5.63,2.7,7.66ZM28.6,5.37c1.62-1.86,3.6-2.78,5.92-2.78s4.23.96,5.92,2.87c1.62,1.8,2.44,4.06,2.44,6.79,0,1.33-.22,2.58-.65,3.74-.44,1.16-1.03,2.17-1.78,3.04-.75.87-1.64,1.57-2.65,2.09-1.02.52-2.1.78-3.26.78-2.26,0-4.23-.93-5.92-2.78-1.57-1.91-2.35-4.23-2.35-6.96s.78-4.93,2.35-6.79ZM31.43,68.27c-.96-.46-1.8-1.1-2.52-1.91-.73-.81-1.29-1.77-1.7-2.87-.41-1.1-.61-2.26-.61-3.48v-27.32c0-2.61.78-4.76,2.35-6.44,1.57-1.8,3.45-2.7,5.65-2.7,2.2.06,4.07.97,5.61,2.74,1.54,1.77,2.31,3.93,2.31,6.48v27.14c0,1.22-.22,2.38-.65,3.48-.44,1.1-1.02,2.07-1.74,2.91-.73.84-1.57,1.49-2.52,1.96-.96.46-1.99.7-3.09.7s-2.13-.23-3.09-.7Z"/>
  <path class="cls-1" d="M60.18,70.88c-.17,0-.33.01-.48.04-.15.03-.28.04-.39.04-2.38,0-4.61-.96-6.7-2.87-2.15-2.15-3.22-4.96-3.22-8.44V13.29c0-1.51.29-2.94.87-4.31.58-1.36,1.36-2.55,2.35-3.57.99-1.01,2.13-1.81,3.44-2.39,1.31-.58,2.71-.87,4.22-.87,2.96,0,5.54,1.1,7.74,3.31v-.09c2.15,2.26,3.22,4.93,3.22,8v8.79c1.91-.58,3.97-.87,6.18-.87,6.67,0,12.21,2.47,16.62,7.4,4.29,4.64,6.44,10.35,6.44,17.14,0,3.02-.46,5.89-1.39,8.61-.93,2.73-2.32,5.28-4.18,7.66h.09c-3.6,4.81-8.06,7.66-13.4,8.53h.09c-.7.12-1.39.2-2.09.26-.7.06-1.42.09-2.17.09-4.06,0-7.63-1.27-10.7-3.83l-5.48,3.39-1.04.35ZM60.7,69.67l6.18-3.83c2.84,2.67,6.35,4,10.53,4,1.27,0,2.61-.09,4-.26,5.1-.87,9.34-3.57,12.7-8.09,3.54-4.7,5.31-9.92,5.31-15.66,0-6.5-2.03-11.98-6.09-16.44-4.35-4.7-9.66-7.05-15.92-7.05-1.16,0-2.32.12-3.48.35-1.16.23-2.41.52-3.74.87v-10.18c0-2.9-.99-5.28-2.96-7.13-1.97-2.03-4.29-3.04-6.96-3.04-1.39,0-2.68.26-3.87.78-1.19.52-2.22,1.25-3.09,2.17-.87.93-1.57,2-2.09,3.22-.52,1.22-.78,2.52-.78,3.92v46.37c0,3.19.99,5.74,2.96,7.66,1.8,1.68,3.77,2.52,5.92,2.52.12,0,.25-.01.39-.04.14-.03.3-.04.48-.04l.52-.09ZM54.09,66.53c-1.74-1.74-2.61-4.03-2.61-6.87V13.29c0-1.22.23-2.38.7-3.48.46-1.1,1.09-2.07,1.87-2.91.78-.84,1.71-1.49,2.78-1.96,1.07-.46,2.22-.7,3.44-.7,2.44,0,4.52.9,6.26,2.7,1.74,1.74,2.61,3.89,2.61,6.44v11.66c.17-.06.38-.12.61-.17.23-.06.49-.14.78-.26,2.26-.75,4.55-1.13,6.87-1.13,6.03,0,11.08,2.21,15.14,6.61,3.89,4.29,5.83,9.54,5.83,15.75,0,5.63-1.68,10.61-5.05,14.96-3.25,4.29-7.28,6.84-12.09,7.66-.64.12-1.28.2-1.91.26-.64.06-1.28.09-1.91.09-4.23,0-7.66-1.36-10.27-4.09v-.26l-6.96,4.26c-2.26.29-4.29-.43-6.09-2.17ZM70.32,51.66c1.13,1.28,2.57,1.91,4.31,1.91s3.16-.65,4.26-1.96c1.1-1.31,1.68-2.91,1.74-4.83.12-2.26-.42-4.06-1.61-5.39-1.19-1.33-2.62-2-4.31-2-1.91,0-3.44.71-4.57,2.13-1.13,1.42-1.67,3.12-1.61,5.09.06,2.09.65,3.77,1.78,5.05ZM69.58,46.44c0-1.62.46-3.03,1.39-4.22.93-1.19,2.17-1.78,3.74-1.78,1.33,0,2.48.52,3.44,1.57.96,1.04,1.44,2.44,1.44,4.18v.61c-.06,1.62-.52,2.99-1.39,4.09-.87,1.1-2.06,1.65-3.57,1.65s-2.64-.55-3.57-1.65c-.93-1.1-1.42-2.52-1.48-4.26v-.17ZM71.8,50.13c.72.84,1.67,1.26,2.83,1.26s2.09-.45,2.78-1.35c.7-.9,1.07-2.01,1.13-3.35v-.52c0-1.45-.36-2.6-1.09-3.44-.73-.84-1.64-1.26-2.74-1.26-1.28,0-2.28.49-3,1.48-.73.99-1.09,2.15-1.09,3.48v.17c.06,1.51.45,2.68,1.17,3.52Z"/>
  <path class="cls-1" d="M103.86,47.13v-.26c.06-3.65.94-7.12,2.65-10.4,1.71-3.28,4.02-6.02,6.92-8.22,4.47-3.36,9.86-5.05,16.18-5.05.64,0,1.29.02,1.96.04.67.03,1.32.07,1.96.13,2.44.29,4.58.74,6.44,1.35,1.86.61,3.45,1.41,4.79,2.39,2.61,2.03,3.92,4.64,3.92,7.83,0,2.78-.87,5.09-2.61,6.92-1.74,1.83-4.03,2.74-6.87,2.74h-.44c-.41,0-.74-.01-1-.04-.26-.03-.51-.07-.74-.13l-.52-.17-3.04-.7.09.09-1.65-.35c-.41-.06-.75-.1-1.04-.13-.29-.03-.55-.04-.78-.04-1.45,0-2.6.35-3.44,1.04-.84.7-1.26,1.62-1.26,2.78v.52c.12,1.45.81,2.52,2.09,3.22.29.12.64.23,1.04.35.4.12.9.17,1.48.17s1.27-.09,2.09-.26h.44l2.44-.52c.93-.23,2.06-.41,3.39-.52h.78c2.78,0,5.1.9,6.96,2.7,1.86,1.8,2.78,4.09,2.78,6.87,0,7.66-6.03,11.48-18.1,11.48h-.78c-9.4-.12-16.47-3.39-21.23-9.83-3.25-4.35-4.87-9.02-4.87-14.01ZM129.96,70.01h.78c11.37,0,17.05-3.51,17.05-10.53,0-2.44-.84-4.47-2.52-6.09-1.68-1.62-3.74-2.44-6.18-2.44h-.78c-1.28.06-2.32.2-3.13.43l-2.78.61h-.17c-.87.17-1.62.26-2.26.26-1.22,0-2.21-.23-2.96-.7-1.62-.93-2.49-2.29-2.61-4.09v-.52c0-1.39.51-2.55,1.52-3.48,1.01-.93,2.39-1.39,4.13-1.39.52,0,1.19.09,2,.26l1.74.26h-.09l3.04.7.44.09c.58.12,1.1.17,1.57.17h.44c2.61,0,4.68-.83,6.22-2.48,1.54-1.65,2.31-3.7,2.31-6.13,0-2.73-1.19-5.05-3.57-6.96-2.55-1.97-6.12-3.16-10.7-3.57-.64-.06-1.28-.1-1.91-.13-.64-.03-1.28-.04-1.91-.04-6.09,0-11.28,1.62-15.57,4.87-2.78,2.09-4.99,4.7-6.61,7.83-1.62,3.13-2.47,6.44-2.52,9.92v.26c0,4.7,1.57,9.17,4.7,13.4,4.64,6.26,11.43,9.43,20.36,9.48ZM105.94,46.87c.06-3.31.87-6.45,2.44-9.44,1.57-2.99,3.68-5.49,6.35-7.53,4-3.07,8.96-4.61,14.88-4.61.64,0,1.26.01,1.87.04.61.03,1.23.07,1.87.13,4.41.41,7.77,1.51,10.09,3.31,2.15,1.62,3.22,3.68,3.22,6.18,0,2.26-.73,4.12-2.17,5.57-1.45,1.45-3.36,2.12-5.74,2-.23,0-.45-.01-.65-.04-.2-.03-.45-.07-.74-.13h-.35l-3.04-.78-1.74-.26c-.81-.17-1.54-.26-2.17-.26-2.21,0-3.92.61-5.13,1.83-1.22,1.22-1.74,2.76-1.57,4.61.17,2.2,1.19,3.86,3.04,4.96.75.46,1.61.73,2.57.78.96.06,2.1,0,3.44-.17h.26l2.78-.61c.81-.23,1.8-.38,2.96-.44,1.16-.06,2.26.09,3.31.44,1.04.35,1.94.86,2.7,1.52.75.67,1.35,1.48,1.78,2.44.44.96.65,1.99.65,3.09,0,6.44-5.63,9.6-16.88,9.48-8.64-.06-15.17-3.1-19.58-9.13-3.07-4-4.55-8.32-4.44-12.96Z"/>
  <path class="cls-1" d="M153.27,49.05v-15.4c0-1.45.29-2.84.87-4.18.58-1.33,1.36-2.49,2.35-3.48s2.15-1.77,3.48-2.35c1.33-.58,2.75-.87,4.26-.87,3.07,0,5.62,1.1,7.66,3.31h-.09c2.2,2.09,3.31,4.67,3.31,7.74v15.14c0,.81.17,1.45.52,1.91.35.47.78.75,1.3.87h.52c.52,0,.93-.14,1.22-.44.58-.58.87-1.36.87-2.35v-15.14c0-3.02,1.1-5.57,3.31-7.66h-.09c2.09-2.26,4.67-3.39,7.74-3.39,1.51,0,2.93.29,4.26.87,1.33.58,2.51,1.36,3.52,2.35,1.01.99,1.81,2.15,2.39,3.48.58,1.33.87,2.73.87,4.18v15.4c0,13.17-6.61,20.47-19.84,21.92-1.39.17-2.84.26-4.35.26s-2.9-.09-4.35-.26c-13.17-1.45-19.75-8.76-19.75-21.92ZM173.11,70.01c.7.06,1.39.1,2.09.13.7.03,1.42.04,2.17.04.7,0,1.41-.01,2.13-.04.72-.03,1.44-.07,2.13-.13h-.09c12.64-1.51,18.97-8.5,18.97-20.97v-15.4c0-1.33-.26-2.6-.78-3.78-.52-1.19-1.25-2.23-2.18-3.13-.93-.9-1.99-1.61-3.18-2.13-1.19-.52-2.48-.78-3.87-.78-2.78,0-5.1,1.02-6.96,3.04-1.97,1.97-2.96,4.29-2.96,6.96v15.14c0,1.28-.26,2.17-.78,2.7-.58.75-1.36,1.13-2.35,1.13-.29,0-.55-.03-.78-.09-.7-.12-1.31-.48-1.83-1.09s-.78-1.49-.78-2.65v-15.14c0-2.73-.99-5.07-2.96-7.05-1.86-1.97-4.15-2.96-6.87-2.96-1.33,0-2.61.26-3.83.78s-2.29,1.23-3.22,2.13c-.93.9-1.65,1.94-2.17,3.13-.52,1.19-.78,2.45-.78,3.78v15.4c0,12.47,6.32,19.46,18.97,20.97h-.09ZM155.27,49.05v-15.4c0-1.22.23-2.35.7-3.39.46-1.04,1.12-1.97,1.96-2.78.84-.81,1.8-1.45,2.87-1.91,1.07-.46,2.22-.7,3.44-.7,2.44,0,4.49.87,6.18,2.61,1.74,1.74,2.61,3.86,2.61,6.35v15.14c0,1.45.33,2.57,1,3.35.67.78,1.49,1.26,2.48,1.44,1.68.35,3.04-.14,4.09-1.48.7-.7,1.04-1.8,1.04-3.31v-15.14c0-2.44.87-4.52,2.61-6.26,1.74-1.8,3.83-2.7,6.26-2.7,1.22,0,2.36.23,3.44.7,1.07.46,2.03,1.1,2.87,1.91.84.81,1.49,1.74,1.96,2.78.46,1.04.7,2.17.7,3.39v15.4c0,11.89-6,18.53-18.01,19.92-.64.06-1.32.1-2.04.13-.73.03-1.41.04-2.04.04-.7,0-1.39-.01-2.09-.04-.7-.03-1.36-.07-2-.13-12.01-1.39-18.01-8.03-18.01-19.92Z"/>
  <path class="cls-1" d="M216.61,70.88c-1.45,0-2.8-.28-4.05-.83-1.25-.55-2.35-1.29-3.31-2.22-.96-.93-1.71-2.03-2.26-3.31-.55-1.27-.83-2.67-.83-4.18v-26.62c0-1.51.3-2.93.91-4.26.61-1.33,1.42-2.49,2.44-3.48,1.01-.99,2.2-1.77,3.57-2.35,1.36-.58,2.83-.87,4.39-.87l6.7,4.7.52-.44c2.38-2.67,5.02-4.03,7.92-4.09.46,0,.93.03,1.39.09.46.06.93.17,1.39.35,4.99,1.33,7.48,4.64,7.48,9.92,0,3.13-1.51,5.77-4.52,7.92-.29.17-.93.49-1.91.96-.99.46-2.41,1.1-4.26,1.91-2.38,1.04-3.77,1.94-4.18,2.7-.46.93-.7,2.67-.7,5.22v7.74c0,1.57-.28,3.03-.83,4.39-.55,1.36-1.3,2.54-2.26,3.52-.96.99-2.07,1.77-3.35,2.35-1.28.58-2.64.87-4.09.87h-.17ZM216.78,69.93c1.28,0,2.49-.27,3.65-.83,1.16-.55,2.17-1.29,3.04-2.22.87-.93,1.55-2,2.04-3.22.49-1.22.74-2.52.74-3.92v-7.74c0-2.84.29-4.73.87-5.66.58-.99,2.15-2.06,4.7-3.22,1.57-.64,2.93-1.26,4.09-1.87,1.16-.61,2.03-1.06,2.61-1.35,2.2-1.57,3.31-3.77,3.31-6.61,0-4.76-2.23-7.74-6.7-8.96-.75-.23-1.57-.35-2.44-.35-2.67.06-5.1,1.31-7.31,3.74l-.96,1.13-.09.09-7.31-5.13c-1.33,0-2.61.26-3.83.78s-2.28,1.23-3.18,2.13c-.9.9-1.61,1.94-2.13,3.13-.52,1.19-.78,2.48-.78,3.87v26.62c0,1.33.25,2.58.74,3.74.49,1.16,1.17,2.18,2.04,3.04s1.87,1.55,3,2.04c1.13.49,2.36.74,3.7.74h.17ZM213.39,68.27c-1.04-.41-1.96-1-2.74-1.78-.78-.78-1.39-1.7-1.83-2.74-.44-1.04-.65-2.17-.65-3.39v-26.62c0-1.22.22-2.36.65-3.44.44-1.07,1.04-2.01,1.83-2.83.78-.81,1.7-1.45,2.74-1.91,1.04-.46,2.18-.7,3.39-.7l7.92,5.57v-.35l.52-.61.96-1.04c1.97-2.15,4.15-3.28,6.53-3.39.7,0,1.42.12,2.17.35,4,1.04,6,3.68,6,7.92,0,2.38-1.07,4.38-3.22,6-.35.17-1.04.51-2.09,1-1.04.49-2.44,1.12-4.18,1.87-2.73,1.22-4.44,2.44-5.13,3.65-.64,1.04-.96,3.1-.96,6.18v7.74c0,2.55-.83,4.7-2.48,6.44-1.65,1.74-3.67,2.64-6.05,2.7-1.22,0-2.35-.2-3.39-.61Z"/>
  <path class="cls-1" d="M246.62,13.2c0-3.07.99-5.68,2.96-7.83v.09c1.91-2.2,4.12-3.31,6.61-3.31h.26c1.33,0,2.58.3,3.74.91,1.16.61,2.16,1.44,3,2.48s1.51,2.23,2,3.57c.49,1.33.74,2.76.74,4.26v46.54c0,1.62-.25,3.12-.74,4.48-.49,1.36-1.17,2.55-2.04,3.57-.87,1.02-1.89,1.8-3.04,2.35-1.16.55-2.41.83-3.74.83s-2.57-.29-3.7-.87-2.19-1.36-3.18-2.35c-1.91-2.2-2.87-4.84-2.87-7.92V13.2ZM247.58,60.01c0,2.73.84,5.1,2.52,7.13,1.8,1.91,3.88,2.87,6.26,2.87s4.49-.94,6.18-2.83c1.68-1.88,2.52-4.31,2.52-7.26V13.38c0-1.39-.22-2.68-.65-3.87-.44-1.19-1.04-2.25-1.83-3.18-.78-.93-1.7-1.67-2.74-2.22-1.04-.55-2.18-.83-3.39-.83h-.26c-2.38,0-4.38.96-6,2.87-1.74,2.03-2.61,4.38-2.61,7.05v46.81ZM248.54,13.2c0-2.49.75-4.58,2.26-6.26,1.57-1.86,3.45-2.73,5.66-2.61,1.1,0,2.12.25,3.04.74.93.49,1.74,1.16,2.44,2,.7.84,1.23,1.8,1.61,2.87.38,1.07.57,2.22.57,3.44v46.54c0,2.61-.74,4.77-2.22,6.48-1.48,1.71-3.32,2.57-5.52,2.57s-4.09-.87-5.66-2.61c-1.45-1.68-2.17-3.8-2.17-6.35V13.2Z"/>
  <path class="cls-1" d="M273.33,25.12c2.09-2.2,4.55-3.31,7.39-3.31,3.07,0,5.6,1.16,7.57,3.48.99,1.16,1.74,2.44,2.26,3.83.52,1.39.78,2.87.78,4.44,0,3.08-1.07,5.83-3.22,8.27h.09c-2.03,2.32-4.52,3.48-7.48,3.48-1.51,0-2.86-.29-4.04-.87-1.19-.58-2.31-1.39-3.35-2.44-2.15-2.32-3.22-5.16-3.22-8.53s1.07-6.03,3.22-8.35ZM273.33,68.53c-2.09-2.44-3.13-5.22-3.13-8.35s1.04-5.97,3.13-8.35v.09c2.14-2.32,4.67-3.48,7.57-3.48s5.31,1.13,7.39,3.39c2.09,2.26,3.13,5.08,3.13,8.44s-1.04,6-3.13,8.27v-.09c-2.03,2.32-4.5,3.48-7.39,3.48s-5.42-1.13-7.57-3.39ZM273.94,41.13c1.97,2.09,4.23,3.13,6.79,3.13s4.93-1.07,6.79-3.22c1.91-2.09,2.87-4.58,2.87-7.48,0-1.45-.25-2.8-.74-4.05-.49-1.25-1.17-2.42-2.04-3.52-1.86-2.15-4.15-3.22-6.87-3.22-2.55,0-4.81,1.04-6.79,3.13-1.91,2.09-2.87,4.61-2.87,7.57s.96,5.57,2.87,7.66ZM287.69,67.75c1.91-2.09,2.87-4.58,2.87-7.48s-.96-5.57-2.87-7.66-4.18-3.13-6.79-3.13-4.96,1.04-6.87,3.13c-1.91,2.03-2.87,4.55-2.87,7.57s.96,5.42,2.87,7.57c1.97,2.09,4.26,3.13,6.87,3.13s4.87-1.04,6.79-3.13ZM274.55,26.6c1.74-1.86,3.8-2.78,6.18-2.78s4.49.96,6.18,2.87c1.68,1.97,2.52,4.26,2.52,6.87s-.84,4.81-2.52,6.79c-1.68,1.91-3.74,2.87-6.18,2.87s-4.44-.93-6.18-2.78c-1.68-1.86-2.52-4.18-2.52-6.96,0-2.61.84-4.9,2.52-6.87ZM274.64,67.06c-1.68-1.97-2.52-4.26-2.52-6.87s.84-4.93,2.52-6.79c1.74-1.91,3.83-2.87,6.26-2.87s4.41.96,6.09,2.87c1.74,1.86,2.61,4.15,2.61,6.87s-.87,4.87-2.61,6.79c-1.68,1.86-3.71,2.78-6.09,2.78s-4.52-.93-6.26-2.78Z"/>
  <path class="cls-1" d="M300.39,71.06c-3.89-1.62-5.83-4.58-5.83-8.87,0-1.33.23-2.55.7-3.65v.09l19.58-50.29c1.45-4,4.29-6,8.53-6,.64,0,1.26.07,1.87.22.61.15,1.2.33,1.78.57,3.71,1.74,5.57,4.73,5.57,8.96,0,1.39-.23,2.64-.7,3.74v-.09l-19.49,50.2c-1.57,3.89-4.41,5.83-8.53,5.83-1.33,0-2.55-.23-3.65-.7h.17ZM302.26,70.58c.55.09,1.09.13,1.61.13,3.65,0,6.18-1.71,7.57-5.13l19.49-50.29c.29-.52.48-1.06.57-1.61.09-.55.13-1.09.13-1.61,0-3.71-1.68-6.35-5.05-7.92-1.04-.52-2.12-.78-3.22-.78-3.71,0-6.26,1.8-7.66,5.39l-19.49,50.29c-.41.99-.61,2.03-.61,3.13,0,3.83,1.71,6.44,5.13,7.83.46.29.97.48,1.52.57ZM296.56,62.18c0-.99.2-1.91.61-2.78l19.49-50.2c1.22-3.19,3.45-4.79,6.7-4.79.52,0,1.01.06,1.48.17.46.12.93.29,1.39.52,2.9,1.33,4.35,3.65,4.35,6.96,0,.99-.17,1.94-.52,2.87l-19.57,50.2c-1.1,3.02-3.31,4.52-6.61,4.52-1.04,0-1.97-.2-2.78-.61-3.02-1.22-4.52-3.51-4.52-6.87Z"/>
  <path class="cls-1" d="M330.84,71.06c-3.89-1.62-5.83-4.58-5.83-8.87,0-1.33.23-2.55.7-3.65v.09l19.58-50.29c1.45-4,4.29-6,8.53-6,.64,0,1.26.07,1.87.22.61.15,1.2.33,1.78.57,3.71,1.74,5.57,4.73,5.57,8.96,0,1.39-.23,2.64-.7,3.74v-.09l-19.49,50.2c-1.57,3.89-4.41,5.83-8.53,5.83-1.33,0-2.55-.23-3.65-.7h.17ZM332.71,70.58c.55.09,1.09.13,1.61.13,3.65,0,6.18-1.71,7.57-5.13l19.49-50.29c.29-.52.48-1.06.57-1.61.09-.55.13-1.09.13-1.61,0-3.71-1.68-6.35-5.05-7.92-1.04-.52-2.12-.78-3.22-.78-3.71,0-6.26,1.8-7.66,5.39l-19.49,50.29c-.41.99-.61,2.03-.61,3.13,0,3.83,1.71,6.44,5.13,7.83.46.29.97.48,1.52.57ZM327.02,62.18c0-.99.2-1.91.61-2.78l19.49-50.2c1.22-3.19,3.45-4.79,6.7-4.79.52,0,1.01.06,1.48.17.46.12.93.29,1.39.52,2.9,1.33,4.35,3.65,4.35,6.96,0,.99-.17,1.94-.52,2.87l-19.57,50.2c-1.1,3.02-3.31,4.52-6.61,4.52-1.04,0-1.97-.2-2.78-.61-3.02-1.22-4.52-3.51-4.52-6.87Z"/>
</svg>